<?xml version="1.0" encoding="UTF-8"?><!DOCTYPE svg PUBLIC "-//W3C//DTD SVG 1.1//EN" "http://www.w3.org/Graphics/SVG/1.1/DTD/svg11.dtd"><svg xmlns="http://www.w3.org/2000/svg" xmlns:xlink="http://www.w3.org/1999/xlink"><defs>
<filter id="filter0_d" x="-3" y="0" width="34" height="34" filterUnits="userSpaceOnUse" color-interpolation-filters="sRGB">
<feFlood flood-opacity="0" result="BackgroundImageFix"/>
<feColorMatrix in="SourceAlpha" type="matrix" values="0 0 0 0 0 0 0 0 0 0 0 0 0 0 0 0 0 0 127 0"/>
<feOffset dy="4"/>
<feGaussianBlur stdDeviation="2"/>
<feColorMatrix type="matrix" values="0 0 0 0 0 0 0 0 0 0 0 0 0 0 0 0 0 0 0.25 0"/>
<feBlend mode="normal" in2="BackgroundImageFix" result="effect1_dropShadow"/>
<feBlend mode="normal" in="SourceGraphic" in2="effect1_dropShadow" result="shape"/>
</filter>
</defs><symbol id="icon-arrow-left" viewBox="0 0 24 24">
<path d="M13.1171 0.066173L0.36753 11.1924C0.252163 11.293 0.15964 11.4173 0.0962285 11.557C0.0328172 11.6967 -5.31162e-07 11.8484 -5.2445e-07 12.002C-5.17738e-07 12.1555 0.0328172 12.3073 0.0962286 12.447C0.15964 12.5866 0.252163 12.711 0.36753 12.8116L13.1171 23.9344C13.1555 23.968 13.2027 23.9898 13.2531 23.9972C13.3035 24.0046 13.355 23.9972 13.4013 23.9761C13.4477 23.9549 13.487 23.9207 13.5146 23.8777C13.5422 23.8346 13.557 23.7845 13.557 23.7333L13.557 21.0179C13.557 20.8637 13.4904 20.7162 13.3737 20.6123L4.96403 13.2742L23.7333 13.2742C23.88 13.2742 24 13.1535 24 13.006L24 10.9946C24 10.8471 23.88 10.7264 23.7333 10.7264L4.96403 10.7264L13.3737 3.38828C13.4904 3.28772 13.557 3.14022 13.557 2.98266L13.557 0.267309C13.557 0.0393537 13.2904 -0.0846811 13.1171 0.066173Z" fill="#70908B"/>
</symbol><symbol id="icon-arrow-right" viewBox="0 0 24 24">
<path d="M10.8829 23.9338L23.6325 12.8076C23.7478 12.707 23.8404 12.5827 23.9038 12.443C23.9672 12.3033 24 12.1516 24 11.998C24 11.8445 23.9672 11.6927 23.9038 11.553C23.8404 11.4134 23.7478 11.289 23.6325 11.1884L10.8829 0.0655721C10.8445 0.031961 10.7973 0.0101675 10.7469 0.00278791C10.6965 -0.0045917 10.645 0.00275346 10.5987 0.0239484C10.5523 0.0451433 10.513 0.0792947 10.4854 0.122335C10.4578 0.165375 10.443 0.215489 10.443 0.266709L10.443 2.98206C10.443 3.13626 10.5096 3.28376 10.6263 3.38768L19.036 10.7258L0.266657 10.7258C0.119995 10.7258 -1.77801e-06 10.8465 -1.77625e-06 10.994L-1.75226e-06 13.0054C-1.7505e-06 13.1529 0.119995 13.2736 0.266657 13.2736L19.036 13.2736L10.6263 20.6117C10.5096 20.7123 10.443 20.8598 10.443 21.0173L10.443 23.7327C10.443 23.9606 10.7096 24.0847 10.8829 23.9338Z" fill="#70908B"/>
</symbol><symbol id="icon-basket" viewBox="0 0 45 38">
<path d="M12.6435 37.7718C14.1216 37.7718 15.3198 36.6461 15.3198 35.2573C15.3198 33.8686 14.1216 32.7428 12.6435 32.7428C11.1654 32.7428 9.96716 33.8686 9.96716 35.2573C9.96716 36.6461 11.1654 37.7718 12.6435 37.7718Z" fill="#195557"/>
<path d="M28.9039 37.7718C30.382 37.7718 31.5802 36.6461 31.5802 35.2573C31.5802 33.8686 30.382 32.7428 28.9039 32.7428C27.4258 32.7428 26.2275 33.8686 26.2275 35.2573C26.2275 36.6461 27.4258 37.7718 28.9039 37.7718Z" fill="#195557"/>
<path d="M36.1359 8.01101C36.0253 7.88281 35.8857 7.77924 35.7274 7.70774C35.569 7.63624 35.3957 7.5986 35.22 7.59751H10.4548L11.228 9.83264H33.6618L30.4859 23.2435H12.6435L7.2075 7.07225C7.1487 6.90066 7.04659 6.74497 6.90989 6.61848C6.77319 6.49199 6.60594 6.39845 6.42243 6.34583L1.54551 4.9377C1.39555 4.8944 1.23799 4.87928 1.08181 4.8932C0.925634 4.90712 0.773903 4.9498 0.635282 5.01881C0.355326 5.15818 0.145765 5.39634 0.0527001 5.68088C-0.0403644 5.96542 -0.00930887 6.27304 0.139035 6.53607C0.287378 6.7991 0.540859 6.99599 0.843713 7.08343L5.11399 8.31275L10.5738 24.5175L8.62299 26.015L8.46836 26.1603C7.98582 26.6828 7.71232 27.347 7.69495 28.0385C7.67758 28.73 7.91743 29.4056 8.3732 29.9489C8.6974 30.3193 9.10938 30.6133 9.57618 30.8073C10.043 31.0014 10.5516 31.0901 11.0615 31.0664H30.9141C31.2295 31.0664 31.5321 30.9487 31.7552 30.7391C31.9782 30.5295 32.1036 30.2453 32.1036 29.9489C32.1036 29.6525 31.9782 29.3682 31.7552 29.1586C31.5321 28.949 31.2295 28.8313 30.9141 28.8313H10.8711C10.7342 28.8269 10.6007 28.7894 10.4837 28.7224C10.3666 28.6554 10.27 28.5612 10.203 28.4488C10.136 28.3365 10.101 28.2098 10.1014 28.081C10.1017 27.9522 10.1374 27.8257 10.205 27.7137L13.0717 25.4786H31.4374C31.7124 25.4849 31.9812 25.4015 32.1981 25.2426C32.415 25.0836 32.5665 24.859 32.6269 24.6069L36.3976 8.96094C36.4338 8.79433 36.429 8.62216 36.3837 8.45755C36.3383 8.29293 36.2536 8.14021 36.1359 8.01101Z" fill="#195557"/>
<circle cx="35.5" cy="9.5" r="9.5" fill="#FFEDCD"/>
<path d="M37.68 11.79V13H33.66V11.79H35.04V7.17C34.9867 7.25 34.8967 7.34 34.77 7.44C34.65 7.53333 34.51 7.62667 34.35 7.72C34.1967 7.80667 34.0367 7.88 33.87 7.94C33.71 8 33.5633 8.03 33.43 8.03V6.79C33.61 6.79 33.7933 6.74333 33.98 6.65C34.1667 6.55 34.3367 6.44333 34.49 6.33C34.65 6.21 34.78 6.1 34.88 6C34.98 5.9 35.0333 5.84333 35.04 5.83H36.41V11.79H37.68Z" fill="black"/>
</symbol><symbol id="icon-breeding" viewBox="0 0 72 72">
<path d="M13.588 35.586C13.588 35.586 9.41998 40.752 9.91998 43.919L7.08698 46.419V47.919C7.08698 47.919 13.92 50.752 20.42 48.752V51.252L20.587 53.752L23.92 55.085C23.92 55.085 27.753 54.419 28.753 49.085C28.753 49.085 32.753 50.585 34.42 54.919L39.087 54.585C39.087 54.585 39.753 52.085 38.92 50.419L59.42 50.085L61.42 51.919V53.919L62.42 55.085H64.587L66.253 53.252L64.42 46.752L65.92 42.085C65.92 42.085 48.587 52.585 24.587 38.919L22.754 35.085C22.754 35.085 18.92 35.752 19.087 36.752C19.087 36.752 18.253 34.086 13.587 35.586H13.588Z" fill="#9B9B9A"/>
<path d="M24.463 26.638C23.607 28.888 22.63 29.932 21.849 30.724C21.5818 30.9992 21.2226 31.1663 20.8399 31.1932C20.4573 31.2201 20.0781 31.1051 19.775 30.87L18.591 29.944L15.167 34.998C14.9443 35.3267 14.6445 35.5958 14.2938 35.7818C13.943 35.9678 13.552 36.065 13.155 36.065C13.155 36.065 10.483 39.336 9.55303 42.871C9.29303 43.862 8.67103 44.721 7.84903 45.333L7.46803 45.618C7.46803 45.618 5.11803 47.58 7.92303 48.433C7.92303 48.433 17.546 51.472 22.879 47.222M41.379 22.305C41.379 22.305 39.555 23.532 38.179 23.794C37.589 23.907 37.017 24.024 36.464 24.144L33.296 23.472C31.725 25.267 29.542 26.122 28.005 26.796M59.963 28.805C57.977 28.805 57.413 28.652 56.293 27.748C55.4246 27.0493 54.6889 26.2001 54.121 25.241L53.713 24.551C51.072 24.551 48.246 24.231 45.665 23.807M66.254 38.5C63.158 37.346 62.72 34.085 61.696 32.765M20.818 51.745L20.591 52.218C20.4444 52.5229 20.3775 52.8599 20.3965 53.1977C20.4156 53.5355 20.52 53.8629 20.7 54.1493C20.8801 54.4357 21.1298 54.6718 21.4259 54.8354C21.722 54.9991 22.0547 55.0849 22.393 55.085H24.02C24.3806 55.0852 24.7346 54.9879 25.0444 54.8034C25.3542 54.6189 25.6084 54.3541 25.78 54.037L28.625 48.774C28.625 48.774 32.126 50.224 33.379 53.81C33.652 54.591 34.428 55.085 35.255 55.085H37.278C37.5584 55.0857 37.8357 55.0274 38.0921 54.9138C38.3484 54.8002 38.5779 54.6338 38.7656 54.4256C38.9533 54.2174 39.0951 53.972 39.1817 53.7053C39.2682 53.4387 39.2977 53.1568 39.268 52.878C39.165 51.95 38.977 50.988 38.635 50.565C38.635 50.565 53.791 51.002 58.642 49.953C59.666 49.731 60.686 50.351 60.912 51.374C61.022 51.87 61.087 52.426 61.054 53.011C60.99 54.151 61.907 55.085 63.048 55.085H63.438C64.562 55.085 65.438 54.285 65.511 53.243C65.634 51.499 65.497 48.851 63.963 46.812C63.963 46.812 65.096 45.82 65.075 42.725M19.21 37.218C19.21 37.218 21.334 33.891 23.23 36.876C24.509 38.891 22.922 41.918 21.755 43.674C21.4861 44.0775 21.0856 44.3754 20.6218 44.5169C20.1579 44.6584 19.6594 44.6348 19.211 44.45M27.421 34.597L32.421 30.472M31.546 40.12L37.546 38.062M36.921 32.765L42.968 29.972M39.944 43.472L46.796 42.725M48.796 36.633L55.671 37.865M46.944 32.49L52.398 29.987M53.04 43.769L59.301 45.446" stroke="#195557" stroke-width="2" stroke-miterlimit="10" stroke-linecap="round" stroke-linejoin="round"/>
</symbol><symbol id="icon-burger" viewBox="0 0 25 14">
<rect width="25" height="2" fill="#195557"/>
<rect y="6" width="25" height="2" fill="#195557"/>
<rect y="12" width="25" height="2" fill="#195557"/>
</symbol><symbol id="icon-call" viewBox="0 0 13 11">
<path d="M8.66722 7.81763L9.78665 6.87004C9.93742 6.74399 10.1282 6.65771 10.3358 6.62167C10.5433 6.58562 10.7588 6.60136 10.956 6.66698L12.3203 7.12809C12.5196 7.19657 12.6905 7.31345 12.8115 7.46402C12.9324 7.61458 12.998 7.79208 13 7.97415V10.0893C12.9988 10.2132 12.9681 10.3355 12.9096 10.4491C12.8511 10.5626 12.766 10.6649 12.6596 10.7499C12.5531 10.8349 12.4275 10.9007 12.2901 10.9435C12.1528 10.9863 12.0067 11.0051 11.8606 10.9988C2.30048 10.4954 0.371468 3.64231 0.00665532 1.01952C-0.0102795 0.890724 0.00519339 0.760351 0.0520562 0.636979C0.098919 0.513607 0.176109 0.400032 0.27855 0.303726C0.38099 0.207421 0.506358 0.130567 0.646406 0.0782204C0.786455 0.0258741 0.938009 -0.000778021 1.0911 1.72889e-05H3.50486C3.72026 0.000556986 3.93054 0.0556321 4.10865 0.158159C4.28677 0.260685 4.42458 0.405975 4.50435 0.575339L5.04907 1.73021C5.12916 1.89649 5.14959 2.07906 5.10782 2.25511C5.06604 2.43117 4.96392 2.5929 4.81419 2.72011L3.69477 3.66769C3.69477 3.66769 4.33944 7.36075 8.66722 7.81763Z" fill="#195557"/>
</symbol><symbol id="icon-close" viewBox="0 0 21 20">
<rect x="0.954102" y="17.6777" width="25" height="2" transform="rotate(-45 0.954102 17.6777)" fill="#195557"/>
<rect x="2.36816" y="0.454102" width="25" height="2" transform="rotate(45 2.36816 0.454102)" fill="#195557"/>
</symbol><symbol id="icon-courting" viewBox="0 0 43 43">
<path d="M38.7588 11.909C38.1959 10.6057 37.3843 9.42471 36.3694 8.43206C35.3538 7.43645 34.1563 6.64525 32.8421 6.10149C31.4793 5.53541 30.0177 5.24566 28.5421 5.24905C26.4719 5.24905 24.4521 5.81595 22.6968 6.88675C22.2769 7.1429 21.8779 7.42425 21.5 7.73079C21.1221 7.42425 20.7231 7.1429 20.3032 6.88675C18.5479 5.81595 16.5281 5.24905 14.4579 5.24905C12.9672 5.24905 11.5227 5.5346 10.1579 6.10149C8.83935 6.64739 7.65098 7.43265 6.63057 8.43206C5.61434 9.42359 4.80255 10.6049 4.24121 11.909C3.65752 13.2654 3.35938 14.7057 3.35938 16.188C3.35938 17.5864 3.64492 19.0435 4.21182 20.5258C4.68633 21.7646 5.3666 23.0495 6.23584 24.3471C7.61318 26.4005 9.50703 28.5421 11.8586 30.7131C15.7555 34.3118 19.6146 36.7978 19.7783 36.8986L20.7735 37.5368C21.2145 37.8182 21.7813 37.8182 22.2223 37.5368L23.2175 36.8986C23.3813 36.7936 27.2361 34.3118 31.1372 30.7131C33.4888 28.5421 35.3826 26.4005 36.76 24.3471C37.6292 23.0495 38.3137 21.7646 38.784 20.5258C39.3509 19.0435 39.6364 17.5864 39.6364 16.188C39.6406 14.7057 39.3425 13.2654 38.7588 11.909ZM21.5 34.2153C21.5 34.2153 6.55078 24.6368 6.55078 16.188C6.55078 11.909 10.0907 8.44046 14.4579 8.44046C17.5275 8.44046 20.1898 10.1537 21.5 12.6565C22.8102 10.1537 25.4725 8.44046 28.5421 8.44046C32.9093 8.44046 36.4492 11.909 36.4492 16.188C36.4492 24.6368 21.5 34.2153 21.5 34.2153Z" fill="#195557"/>
<path d="M28.5421 8.44043C25.4725 8.44043 22.8102 10.1537 21.5 12.6564C20.1898 10.1537 17.5275 8.44043 14.4579 8.44043C10.0907 8.44043 6.55078 11.909 6.55078 16.188C6.55078 24.6368 21.5 34.2152 21.5 34.2152C21.5 34.2152 36.4492 24.6368 36.4492 16.188C36.4492 11.909 32.9093 8.44043 28.5421 8.44043Z" fill="black" fill-opacity="0.1"/>
</symbol><symbol id="icon-courtinginfo" viewBox="0 0 22 22">
<path d="M19.8301 6.09298C19.5421 5.42619 19.1269 4.82194 18.6076 4.31408C18.088 3.8047 17.4753 3.3999 16.8029 3.12169C16.1057 2.83207 15.3579 2.68382 14.6029 2.68556C13.5438 2.68556 12.5104 2.9756 11.6123 3.52345C11.3975 3.65451 11.1934 3.79845 11 3.95529C10.8066 3.79845 10.6025 3.65451 10.3877 3.52345C9.48965 2.9756 8.45625 2.68556 7.39707 2.68556C6.63438 2.68556 5.89531 2.83166 5.19707 3.12169C4.52246 3.40099 3.91445 3.80275 3.39238 4.31408C2.87245 4.82137 2.45712 5.42576 2.16992 6.09298C1.87129 6.78693 1.71875 7.52384 1.71875 8.28224C1.71875 8.99767 1.86484 9.74318 2.15488 10.5016C2.39766 11.1354 2.7457 11.7928 3.19043 12.4567C3.89512 13.5072 4.86406 14.6029 6.06719 15.7137C8.06094 17.5549 10.0354 18.8268 10.1191 18.8783L10.6283 19.2049C10.8539 19.3488 11.1439 19.3488 11.3695 19.2049L11.8787 18.8783C11.9625 18.8246 13.9348 17.5549 15.9307 15.7137C17.1338 14.6029 18.1027 13.5072 18.8074 12.4567C19.2521 11.7928 19.6023 11.1354 19.843 10.5016C20.133 9.74318 20.2791 8.99767 20.2791 8.28224C20.2813 7.52384 20.1287 6.78693 19.8301 6.09298ZM11 17.5055C11 17.5055 3.35156 12.6049 3.35156 8.28224C3.35156 6.09298 5.1627 4.31837 7.39707 4.31837C8.96758 4.31837 10.3297 5.19494 11 6.4754C11.6703 5.19494 13.0324 4.31837 14.6029 4.31837C16.8373 4.31837 18.6484 6.09298 18.6484 8.28224C18.6484 12.6049 11 17.5055 11 17.5055Z" fill="white"/>
<path d="M14.6029 4.31836C13.0324 4.31836 11.6703 5.19492 11 6.47539C10.3297 5.19492 8.96758 4.31836 7.39707 4.31836C5.1627 4.31836 3.35156 6.09297 3.35156 8.28223C3.35156 12.6049 11 17.5055 11 17.5055C11 17.5055 18.6484 12.6049 18.6484 8.28223C18.6484 6.09297 16.8373 4.31836 14.6029 4.31836Z" fill="black" fill-opacity="0.1"/>
</symbol><symbol id="icon-fb" viewBox="0 0 40 40">
<path d="M30.59 9.37333C27.6733 6.47167 24.11 5 20 5C15.8517 5 12.2783 6.47333 9.37833 9.375C6.47333 12.2767 5 15.8533 5 20C5 24.1083 6.47167 27.6717 9.37333 30.59C12.275 33.5167 15.85 35 20 35C24.1117 35 27.675 33.5167 30.5933 30.595C33.5183 27.6733 35 24.1083 35 20C35 15.8533 33.5167 12.2767 30.59 9.37333ZM28.2367 28.2383C26.3417 30.1367 24.1767 31.2183 21.6667 31.5467V23.3333H25V20H21.6667V17.6667C21.6667 17.5352 21.6926 17.405 21.7429 17.2836C21.7933 17.1622 21.8671 17.0518 21.9601 16.959C22.0532 16.8661 22.1636 16.7925 22.2851 16.7423C22.4067 16.6922 22.5369 16.6664 22.6683 16.6667H25V13.3333H22.6717C21.435 13.3333 20.4033 13.7883 19.5767 14.7033C18.75 15.615 18.3333 16.7283 18.3333 18.05V20H15V23.3333H18.3333V31.55C15.7967 31.225 13.6233 30.1417 11.7383 28.2433C9.44667 25.9367 8.33333 23.24 8.33333 20C8.33333 16.7233 9.445 14.02 11.7367 11.7333C14.02 9.445 16.7233 8.33333 20 8.33333C23.2417 8.33333 25.9367 9.44667 28.2417 11.7383C30.5467 14.025 31.6667 16.7283 31.6667 20C31.6667 23.235 30.545 25.9317 28.2367 28.2383Z" fill="white"/>
</symbol><symbol id="icon-health" viewBox="0 0 46 46">
<path d="M33.3773 5.43518L31.3088 7.50374L31.8478 8.04281L28.5689 11.3217L30.59 13.3889L33.8718 10.0625L35.9375 12.1296L32.6126 15.4071L34.6797 17.4297L37.9586 14.1507L38.4977 14.6898L40.5663 12.6212L33.3773 5.43518ZM25.4711 10.4664L23.4025 12.535L24.347 13.478L10.0625 27.807L9.56801 28.3001L9.65858 28.9757L10.1516 33.557L10.1976 34.0501L10.3313 34.1406L5.66089 38.8125H9.74914L12.6701 35.8929L17.0258 36.3414L17.7014 36.432L18.1945 35.9375L32.5249 21.6516L33.4679 22.5961L35.535 20.5289L25.4711 10.4664ZM26.4141 15.5437L30.4578 19.5859L16.6664 33.4219L13.2523 33.0179L12.9821 32.7477L12.5781 29.3336L26.4141 15.5437Z" fill="#195557"/>
</symbol><symbol id="icon-healthinfo" viewBox="0 0 28 30">
<g filter="url(#filter0_d)">
<path d="M19.8655 3.07202L18.6963 4.24121L19.001 4.5459L17.1476 6.39921L18.29 7.56758L20.145 5.68746L21.3125 6.85583L19.4332 8.70833L20.6016 9.85152L22.4549 7.99821L22.7596 8.3029L23.9288 7.13371L19.8655 3.07202ZM15.3967 5.91577L14.2275 7.08496L14.7613 7.61796L6.68752 15.717L6.40802 15.9956L6.45921 16.3775L6.7379 18.967L6.7639 19.2456L6.83946 19.2968L4.19965 21.9375H6.5104L8.1614 20.2873L10.6233 20.5408L11.0051 20.592L11.2838 20.3125L19.3836 12.2378L19.9166 12.7716L21.085 11.6033L15.3967 5.91577ZM15.9297 8.78552L18.2153 11.0703L10.4201 18.8906L8.49046 18.6623L8.33771 18.5095L8.1094 16.5798L15.9297 8.78552Z" fill="white"/>
</g>

</symbol><symbol id="icon-info" viewBox="0 0 37 37">
<path d="M18.5 2.3125C9.56074 2.3125 2.3125 9.56074 2.3125 18.5C2.3125 27.4393 9.56074 34.6875 18.5 34.6875C27.4393 34.6875 34.6875 27.4393 34.6875 18.5C34.6875 9.56074 27.4393 2.3125 18.5 2.3125ZM18.5 31.9414C11.0783 31.9414 5.05859 25.9217 5.05859 18.5C5.05859 11.0783 11.0783 5.05859 18.5 5.05859C25.9217 5.05859 31.9414 11.0783 31.9414 18.5C31.9414 25.9217 25.9217 31.9414 18.5 31.9414Z" fill="#195557"/>
<path d="M16.7656 12.1406C16.7656 12.6006 16.9484 13.0418 17.2736 13.367C17.5989 13.6923 18.04 13.875 18.5 13.875C18.96 13.875 19.4011 13.6923 19.7264 13.367C20.0516 13.0418 20.2344 12.6006 20.2344 12.1406C20.2344 11.6806 20.0516 11.2395 19.7264 10.9142C19.4011 10.589 18.96 10.4063 18.5 10.4062C18.04 10.4063 17.5989 10.589 17.2736 10.9142C16.9484 11.2395 16.7656 11.6806 16.7656 12.1406ZM19.3672 16.1875H17.6328C17.4738 16.1875 17.3438 16.3176 17.3438 16.4766V26.3047C17.3438 26.4637 17.4738 26.5938 17.6328 26.5938H19.3672C19.5262 26.5938 19.6562 26.4637 19.6562 26.3047V16.4766C19.6562 16.3176 19.5262 16.1875 19.3672 16.1875Z" fill="#195557"/>
</symbol><symbol id="icon-insta" viewBox="0 0 40 40">
<path d="M20 5C11.6667 5 5 11.6667 5 20C5 28.3333 11.6667 35 20 35C28.3333 35 35 28.3333 35 20C35 11.6667 28.3333 5 20 5ZM20 16.6667C21.8333 16.6667 23.3333 18.1667 23.3333 20C23.3333 21.8333 21.8333 23.3333 20 23.3333C18.1667 23.3333 16.6667 21.8333 16.6667 20C16.6667 18.1667 18.1667 16.6667 20 16.6667ZM24.6667 13.3333C24.6667 12.1667 25.6667 11.3333 26.6667 11.3333C27.6667 11.3333 28.6667 12.3333 28.6667 13.3333C28.6667 14.3333 27.8333 15.3333 26.6667 15.3333C25.5 15.3333 24.6667 14.5 24.6667 13.3333ZM20 31.6667C13.5 31.6667 8.33333 26.5 8.33333 20H13.3333C13.3333 23.6667 16.3333 26.6667 20 26.6667C23.6667 26.6667 26.6667 23.6667 26.6667 20H31.6667C31.6667 26.5 26.5 31.6667 20 31.6667Z" fill="white"/>
</symbol><symbol id="icon-logo-footer" viewBox="0 0 121 57">
<path d="M69.136 22.2364C69.136 22.6688 69.4866 23.0194 69.919 23.0194H71.3554C71.7878 23.0194 72.1384 22.6688 72.1384 22.2364C72.1384 21.804 71.7878 21.4534 71.3554 21.4534H69.919C69.4866 21.4534 69.136 21.804 69.136 22.2364Z" fill="white"/>
<path d="M79.3901 26.4806C79.229 26.4806 79.0713 26.4951 78.9174 26.5212L73.7566 17.9589C73.7773 17.9336 73.7971 17.9073 73.815 17.879L77.2807 12.3746C77.4244 12.1464 77.4405 11.8603 77.3235 11.6174C77.2064 11.3745 76.9725 11.2088 76.7045 11.1791L71.0187 10.5477L71.6642 4.86373C71.6946 4.59603 71.5854 4.33146 71.3746 4.16334C71.1642 3.99531 70.882 3.94723 70.6275 4.03631L65.228 5.92653L63.3425 0.525034C63.2536 0.270412 63.0401 0.0794463 62.7772 0.0195679C62.5144 -0.0401263 62.239 0.0392819 62.0487 0.230248L58.0091 4.28218L53.9695 0.230248C53.7791 0.0392819 53.5037 -0.0403106 53.241 0.0195679C52.9781 0.0794463 52.7646 0.270505 52.6757 0.524942L50.7902 5.92644L45.3906 4.03631C45.1362 3.94732 44.854 3.99522 44.6434 4.16334C44.4328 4.33137 44.3234 4.59594 44.3538 4.86373L44.9994 10.5477L39.3136 11.1792C39.0455 11.2089 38.8117 11.3745 38.6946 11.6175C38.5775 11.8604 38.5937 12.1464 38.7374 12.3747L41.7854 17.2156L36.9416 20.2576C36.7135 20.4008 36.575 20.6513 36.575 20.9206C36.575 21.19 36.7135 21.4404 36.9416 21.5837L41.7854 24.6257L38.7374 29.4667C38.5855 29.7079 38.5768 30.0125 38.7144 30.262C38.852 30.5115 39.1142 30.6666 39.3992 30.667L76.9784 30.7093C77.4672 31.5329 78.3651 32.0865 79.3902 32.0865C80.9357 32.0865 82.1932 30.8291 82.1932 29.2835C82.193 27.7379 80.9356 26.4806 79.3901 26.4806ZM76.5909 29.1428L62.6296 29.127C60.7809 22.8652 65.359 17.9954 70.6997 15.9213L77.5047 27.2112C76.9738 27.6947 76.6288 28.379 76.5909 29.1428ZM43.5284 24.7968C43.6391 24.6209 43.6754 24.4082 43.6292 24.2056C43.583 24.003 43.4583 23.8271 43.2822 23.7164L38.8304 20.9206L43.2822 18.1247C43.4583 18.0141 43.5831 17.8382 43.6292 17.6355C43.6755 17.4329 43.6391 17.2202 43.5284 17.0443L40.7285 12.5975L45.9524 12.0174C46.1592 11.9944 46.3483 11.8901 46.4781 11.7276C46.6079 11.565 46.6676 11.3574 46.6441 11.1508L46.0507 5.92644L51.0124 7.66337C51.2085 7.732 51.4238 7.71975 51.6111 7.62975C51.7983 7.53947 51.9419 7.37854 52.0105 7.1825L53.7425 2.22061L57.4545 5.94403C57.6015 6.09143 57.801 6.17424 58.0091 6.17424C58.2172 6.17424 58.4167 6.09143 58.5637 5.94403L62.2758 2.22061L64.0077 7.1825C64.0762 7.37872 64.2199 7.53966 64.4071 7.62984C64.5942 7.72003 64.8096 7.73219 65.0058 7.66347L69.9676 5.92653L69.3742 11.1509C69.3507 11.3575 69.4105 11.5651 69.5402 11.7276C69.6699 11.8903 69.859 11.9945 70.0658 12.0175L75.2897 12.5975L72.8554 16.4636L71.7076 14.5593C71.5166 14.2424 71.1299 14.1027 70.7808 14.2235C67.1899 15.4669 64.2404 17.6385 62.4758 20.3383C60.7185 23.0272 60.2178 26.0454 61.0048 29.125L40.8176 29.1023L43.5284 24.7968ZM79.3901 30.5204C78.7082 30.5204 78.1533 29.9655 78.1533 29.2835C78.1533 28.6014 78.7082 28.0465 79.3901 28.0465C80.0721 28.0465 80.627 28.6014 80.627 29.2835C80.627 29.9655 80.0721 30.5204 79.3901 30.5204Z" fill="white"/>
<path d="M15.488 55.545C15.532 55.545 15.554 55.589 15.554 55.677C15.554 55.765 15.532 55.809 15.488 55.809C14.9747 55.809 14.564 55.8017 14.256 55.787L12.562 55.765L10.582 55.787C10.318 55.8017 9.95867 55.809 9.504 55.809C9.46 55.809 9.438 55.765 9.438 55.677C9.438 55.589 9.46 55.545 9.504 55.545C10.0467 55.545 10.4427 55.5084 10.692 55.435C10.9413 55.3617 11.11 55.2224 11.198 55.017C11.286 54.8117 11.33 54.4817 11.33 54.027V48.967H4.224V54.027C4.224 54.467 4.268 54.797 4.356 55.017C4.444 55.2224 4.61267 55.3617 4.862 55.435C5.11133 55.5084 5.50733 55.545 6.05 55.545C6.07933 55.545 6.094 55.589 6.094 55.677C6.094 55.765 6.07933 55.809 6.05 55.809C5.53667 55.809 5.126 55.8017 4.818 55.787L2.904 55.765L1.254 55.787C0.960667 55.8017 0.557333 55.809 0.044 55.809C0.0146667 55.809 0 55.765 0 55.677C0 55.589 0.0146667 55.545 0.044 55.545C0.557333 55.545 0.931333 55.5084 1.166 55.435C1.40067 55.3617 1.562 55.2224 1.65 55.017C1.738 54.797 1.782 54.467 1.782 54.027V43.841C1.782 43.401 1.738 43.0784 1.65 42.873C1.562 42.6677 1.40067 42.5284 1.166 42.455C0.946 42.367 0.586667 42.323 0.088 42.323C0.044 42.323 0.022 42.279 0.022 42.191C0.022 42.103 0.044 42.059 0.088 42.059L1.276 42.081C1.95067 42.1104 2.49333 42.125 2.904 42.125C3.46133 42.125 4.10667 42.1104 4.84 42.081L6.05 42.059C6.07933 42.059 6.094 42.103 6.094 42.191C6.094 42.279 6.07933 42.323 6.05 42.323C5.522 42.323 5.13333 42.367 4.884 42.455C4.63467 42.543 4.45867 42.697 4.356 42.917C4.268 43.1224 4.224 43.445 4.224 43.885V48.351H11.33V43.885C11.33 43.445 11.286 43.1224 11.198 42.917C11.11 42.697 10.9413 42.543 10.692 42.455C10.4427 42.367 10.0467 42.323 9.504 42.323C9.46 42.323 9.438 42.279 9.438 42.191C9.438 42.103 9.46 42.059 9.504 42.059L10.582 42.081C11.3153 42.1104 11.9753 42.125 12.562 42.125C12.958 42.125 13.5227 42.1104 14.256 42.081L15.488 42.059C15.532 42.059 15.554 42.103 15.554 42.191C15.554 42.279 15.532 42.323 15.488 42.323C14.9893 42.323 14.6153 42.367 14.366 42.455C14.1313 42.5284 13.97 42.6677 13.882 42.873C13.8087 43.0784 13.772 43.401 13.772 43.841V54.027C13.772 54.467 13.8087 54.797 13.882 55.017C13.97 55.2224 14.1313 55.3617 14.366 55.435C14.6007 55.5084 14.9747 55.545 15.488 55.545Z" fill="white"/>
<path d="M27.0968 52.311C27.0968 52.2817 27.1261 52.267 27.1848 52.267C27.2288 52.267 27.2654 52.2817 27.2948 52.311C27.3388 52.3257 27.3608 52.3404 27.3608 52.355C27.2141 53.499 27.1408 54.5404 27.1408 55.479C27.1408 55.5964 27.1188 55.6844 27.0748 55.743C27.0308 55.787 26.9428 55.809 26.8108 55.809H17.0868C17.0428 55.809 17.0208 55.765 17.0208 55.677C17.0208 55.589 17.0428 55.545 17.0868 55.545C17.5561 55.545 17.8934 55.5084 18.0988 55.435C18.3188 55.3617 18.4654 55.2224 18.5388 55.017C18.6121 54.797 18.6488 54.467 18.6488 54.027V43.841C18.6488 43.401 18.6121 43.0784 18.5388 42.873C18.4654 42.6677 18.3188 42.5284 18.0988 42.455C17.8788 42.367 17.5414 42.323 17.0868 42.323C17.0428 42.323 17.0208 42.279 17.0208 42.191C17.0208 42.103 17.0428 42.059 17.0868 42.059H26.4148C26.5614 42.059 26.6348 42.125 26.6348 42.257L26.6788 45.183C26.6788 45.2124 26.6348 45.2344 26.5468 45.249C26.4734 45.2637 26.4294 45.249 26.4148 45.205C26.1801 44.3544 25.7841 43.7237 25.2268 43.313C24.6694 42.9024 23.9361 42.697 23.0268 42.697H22.3668C21.9268 42.697 21.6041 42.7924 21.3988 42.983C21.1934 43.1737 21.0908 43.467 21.0908 43.863V48.351H22.9168C23.7674 48.351 24.4201 48.2044 24.8748 47.911C25.3294 47.6177 25.5568 47.207 25.5568 46.679C25.5568 46.635 25.5934 46.613 25.6668 46.613C25.7548 46.613 25.7988 46.635 25.7988 46.679L25.7768 48.659L25.7988 49.715C25.8281 50.2137 25.8428 50.6097 25.8428 50.903C25.8428 50.9324 25.7988 50.947 25.7108 50.947C25.6228 50.947 25.5788 50.9324 25.5788 50.903C25.5788 50.3017 25.3441 49.8324 24.8748 49.495C24.4201 49.143 23.7601 48.967 22.8948 48.967H21.0908V53.939C21.0908 54.3644 21.1714 54.6797 21.3328 54.885C21.4941 55.0904 21.7508 55.193 22.1028 55.193H22.8288C23.9728 55.193 24.8894 54.9584 25.5788 54.489C26.2681 54.0197 26.7741 53.2937 27.0968 52.311Z" fill="white"/>
<path d="M35.4955 55.897C35.0261 55.897 34.4688 55.875 33.8235 55.831C33.5888 55.8164 33.2955 55.8017 32.9435 55.787C32.6061 55.7724 32.2248 55.765 31.7995 55.765L30.1715 55.787C29.8781 55.8017 29.4821 55.809 28.9835 55.809C28.9541 55.809 28.9395 55.765 28.9395 55.677C28.9395 55.589 28.9541 55.545 28.9835 55.545C29.4528 55.545 29.7975 55.5084 30.0175 55.435C30.2375 55.3617 30.3841 55.2224 30.4575 55.017C30.5455 54.797 30.5895 54.467 30.5895 54.027V43.841C30.5895 43.401 30.5455 43.0784 30.4575 42.873C30.3841 42.6677 30.2375 42.5284 30.0175 42.455C29.8121 42.367 29.4821 42.323 29.0275 42.323C28.9835 42.323 28.9615 42.279 28.9615 42.191C28.9615 42.103 28.9835 42.059 29.0275 42.059L30.1935 42.081C30.8681 42.1104 31.4035 42.125 31.7995 42.125C32.4008 42.125 33.0168 42.103 33.6475 42.059C34.4101 42.0297 34.9235 42.015 35.1875 42.015C36.6688 42.015 37.9815 42.3084 39.1255 42.895C40.2841 43.4817 41.1788 44.281 41.8095 45.293C42.4401 46.305 42.7555 47.4417 42.7555 48.703C42.7555 50.1257 42.4255 51.387 41.7655 52.487C41.1201 53.5724 40.2401 54.4157 39.1255 55.017C38.0255 55.6037 36.8155 55.897 35.4955 55.897ZM35.2755 55.391C36.2141 55.391 37.0428 55.1564 37.7615 54.687C38.4801 54.203 39.0375 53.4917 39.4335 52.553C39.8441 51.6144 40.0495 50.4924 40.0495 49.187C40.0495 47.9404 39.8588 46.811 39.4775 45.799C39.0961 44.7724 38.5535 43.9657 37.8495 43.379C37.1455 42.7924 36.3315 42.499 35.4075 42.499C34.4981 42.499 33.8748 42.587 33.5375 42.763C33.2001 42.939 33.0315 43.313 33.0315 43.885V53.785C33.0315 54.3717 33.1855 54.7897 33.4935 55.039C33.8015 55.2737 34.3955 55.391 35.2755 55.391Z" fill="white"/>
<path d="M52.8332 56.073C51.2198 56.073 49.8118 55.765 48.6092 55.149C47.4065 54.533 46.4898 53.697 45.8592 52.641C45.2285 51.5704 44.9132 50.3824 44.9132 49.077C44.9132 47.669 45.2725 46.415 45.9912 45.315C46.7245 44.2004 47.7218 43.3424 48.9832 42.741C50.2592 42.125 51.6818 41.817 53.2512 41.817C53.9405 41.817 54.6372 41.8757 55.3412 41.993C56.0452 42.0957 56.6098 42.235 57.0352 42.411C57.1672 42.455 57.2478 42.5137 57.2772 42.587C57.3212 42.6457 57.3505 42.7557 57.3652 42.917L57.6512 45.975C57.6512 46.019 57.6145 46.0484 57.5412 46.063C57.4678 46.0777 57.4165 46.0557 57.3872 45.997C56.8738 44.8677 56.1625 43.9877 55.2532 43.357C54.3585 42.7264 53.3318 42.411 52.1732 42.411C50.6772 42.411 49.5332 42.9317 48.7412 43.973C47.9638 45.0144 47.5752 46.437 47.5752 48.241C47.5752 49.693 47.8245 50.991 48.3232 52.135C48.8218 53.2644 49.5112 54.1444 50.3912 54.775C51.2858 55.391 52.2832 55.699 53.3832 55.699C53.9845 55.699 54.4465 55.633 54.7692 55.501C55.0918 55.369 55.3265 55.1124 55.4732 54.731C55.6198 54.3497 55.6932 53.785 55.6932 53.037C55.6932 52.2744 55.6492 51.7464 55.5612 51.453C55.4732 51.145 55.2825 50.9397 54.9892 50.837C54.7105 50.7344 54.2192 50.683 53.5152 50.683C53.4272 50.683 53.3832 50.6244 53.3832 50.507C53.3832 50.463 53.3905 50.4264 53.4052 50.397C53.4345 50.353 53.4638 50.331 53.4932 50.331C54.7398 50.4044 55.7445 50.441 56.5072 50.441C57.2552 50.441 58.0325 50.419 58.8392 50.375C58.8685 50.375 58.8905 50.397 58.9052 50.441C58.9345 50.4704 58.9492 50.4997 58.9492 50.529C58.9492 50.6317 58.9125 50.683 58.8392 50.683C58.5752 50.6684 58.3918 50.7197 58.2892 50.837C58.1865 50.9397 58.1205 51.1597 58.0912 51.497C58.0618 51.8197 58.0472 52.4064 58.0472 53.257C58.0472 53.917 58.0692 54.3864 58.1132 54.665C58.1718 54.9437 58.2012 55.1197 58.2012 55.193C58.2012 55.281 58.1792 55.3397 58.1352 55.369C58.1058 55.3984 58.0398 55.4277 57.9372 55.457C56.0452 55.8677 54.3438 56.073 52.8332 56.073Z" fill="white"/>
<path d="M70.5597 52.311C70.5597 52.2817 70.589 52.267 70.6477 52.267C70.6917 52.267 70.7283 52.2817 70.7577 52.311C70.8017 52.3257 70.8237 52.3404 70.8237 52.355C70.677 53.499 70.6037 54.5404 70.6037 55.479C70.6037 55.5964 70.5817 55.6844 70.5377 55.743C70.4937 55.787 70.4057 55.809 70.2737 55.809H60.5497C60.5057 55.809 60.4837 55.765 60.4837 55.677C60.4837 55.589 60.5057 55.545 60.5497 55.545C61.019 55.545 61.3563 55.5084 61.5617 55.435C61.7817 55.3617 61.9283 55.2224 62.0017 55.017C62.075 54.797 62.1117 54.467 62.1117 54.027V43.841C62.1117 43.401 62.075 43.0784 62.0017 42.873C61.9283 42.6677 61.7817 42.5284 61.5617 42.455C61.3417 42.367 61.0043 42.323 60.5497 42.323C60.5057 42.323 60.4837 42.279 60.4837 42.191C60.4837 42.103 60.5057 42.059 60.5497 42.059H69.8777C70.0243 42.059 70.0977 42.125 70.0977 42.257L70.1417 45.183C70.1417 45.2124 70.0977 45.2344 70.0097 45.249C69.9363 45.2637 69.8923 45.249 69.8777 45.205C69.643 44.3544 69.247 43.7237 68.6897 43.313C68.1323 42.9024 67.399 42.697 66.4897 42.697H65.8297C65.3897 42.697 65.067 42.7924 64.8617 42.983C64.6563 43.1737 64.5537 43.467 64.5537 43.863V48.351H66.3797C67.2303 48.351 67.883 48.2044 68.3377 47.911C68.7923 47.6177 69.0197 47.207 69.0197 46.679C69.0197 46.635 69.0563 46.613 69.1297 46.613C69.2177 46.613 69.2617 46.635 69.2617 46.679L69.2397 48.659L69.2617 49.715C69.291 50.2137 69.3057 50.6097 69.3057 50.903C69.3057 50.9324 69.2617 50.947 69.1737 50.947C69.0857 50.947 69.0417 50.9324 69.0417 50.903C69.0417 50.3017 68.807 49.8324 68.3377 49.495C67.883 49.143 67.223 48.967 66.3577 48.967H64.5537V53.939C64.5537 54.3644 64.6343 54.6797 64.7957 54.885C64.957 55.0904 65.2137 55.193 65.5657 55.193H66.2917C67.4357 55.193 68.3523 54.9584 69.0417 54.489C69.731 54.0197 70.237 53.2937 70.5597 52.311Z" fill="white"/>
<path d="M87.8903 55.545C87.9343 55.545 87.9563 55.589 87.9563 55.677C87.9563 55.765 87.9343 55.809 87.8903 55.809C87.377 55.809 86.9663 55.8017 86.6583 55.787L84.9643 55.765L82.9843 55.787C82.7203 55.8017 82.361 55.809 81.9063 55.809C81.8623 55.809 81.8403 55.765 81.8403 55.677C81.8403 55.589 81.8623 55.545 81.9063 55.545C82.449 55.545 82.845 55.5084 83.0943 55.435C83.3437 55.3617 83.5123 55.2224 83.6003 55.017C83.6883 54.8117 83.7323 54.4817 83.7323 54.027V48.967H76.6263V54.027C76.6263 54.467 76.6703 54.797 76.7583 55.017C76.8463 55.2224 77.015 55.3617 77.2643 55.435C77.5137 55.5084 77.9097 55.545 78.4523 55.545C78.4817 55.545 78.4963 55.589 78.4963 55.677C78.4963 55.765 78.4817 55.809 78.4523 55.809C77.939 55.809 77.5283 55.8017 77.2203 55.787L75.3063 55.765L73.6563 55.787C73.363 55.8017 72.9597 55.809 72.4463 55.809C72.417 55.809 72.4023 55.765 72.4023 55.677C72.4023 55.589 72.417 55.545 72.4463 55.545C72.9597 55.545 73.3337 55.5084 73.5683 55.435C73.803 55.3617 73.9643 55.2224 74.0523 55.017C74.1403 54.797 74.1843 54.467 74.1843 54.027V43.841C74.1843 43.401 74.1403 43.0784 74.0523 42.873C73.9643 42.6677 73.803 42.5284 73.5683 42.455C73.3483 42.367 72.989 42.323 72.4903 42.323C72.4463 42.323 72.4243 42.279 72.4243 42.191C72.4243 42.103 72.4463 42.059 72.4903 42.059L73.6783 42.081C74.353 42.1104 74.8957 42.125 75.3063 42.125C75.8637 42.125 76.509 42.1104 77.2423 42.081L78.4523 42.059C78.4817 42.059 78.4963 42.103 78.4963 42.191C78.4963 42.279 78.4817 42.323 78.4523 42.323C77.9243 42.323 77.5357 42.367 77.2863 42.455C77.037 42.543 76.861 42.697 76.7583 42.917C76.6703 43.1224 76.6263 43.445 76.6263 43.885V48.351H83.7323V43.885C83.7323 43.445 83.6883 43.1224 83.6003 42.917C83.5123 42.697 83.3437 42.543 83.0943 42.455C82.845 42.367 82.449 42.323 81.9063 42.323C81.8623 42.323 81.8403 42.279 81.8403 42.191C81.8403 42.103 81.8623 42.059 81.9063 42.059L82.9843 42.081C83.7177 42.1104 84.3777 42.125 84.9643 42.125C85.3604 42.125 85.925 42.1104 86.6583 42.081L87.8903 42.059C87.9343 42.059 87.9563 42.103 87.9563 42.191C87.9563 42.279 87.9343 42.323 87.8903 42.323C87.3917 42.323 87.0177 42.367 86.7683 42.455C86.5337 42.5284 86.3723 42.6677 86.2843 42.873C86.211 43.0784 86.1743 43.401 86.1743 43.841V54.027C86.1743 54.467 86.211 54.797 86.2843 55.017C86.3723 55.2224 86.5337 55.3617 86.7683 55.435C87.003 55.5084 87.377 55.545 87.8903 55.545Z" fill="white"/>
<path d="M96.6391 56.073C95.2751 56.073 94.0578 55.7577 92.9871 55.127C91.9311 54.4817 91.1098 53.6164 90.5231 52.531C89.9511 51.431 89.6651 50.2357 89.6651 48.945C89.6651 47.4344 90.0465 46.1437 90.8091 45.073C91.5718 43.9877 92.5471 43.1737 93.7351 42.631C94.9378 42.0884 96.1625 41.817 97.4091 41.817C98.8025 41.817 100.027 42.147 101.083 42.807C102.139 43.4524 102.946 44.3104 103.503 45.381C104.075 46.4517 104.361 47.5884 104.361 48.791C104.361 50.1257 104.009 51.3504 103.305 52.465C102.601 53.5797 101.655 54.4597 100.467 55.105C99.2938 55.7504 98.0178 56.073 96.6391 56.073ZM97.3651 55.523C98.1865 55.523 98.9198 55.2884 99.5651 54.819C100.225 54.335 100.738 53.6384 101.105 52.729C101.472 51.805 101.655 50.705 101.655 49.429C101.655 48.0797 101.45 46.877 101.039 45.821C100.628 44.7504 100.034 43.9144 99.2571 43.313C98.4798 42.7117 97.5705 42.411 96.5291 42.411C95.1945 42.411 94.1678 42.917 93.4491 43.929C92.7305 44.9264 92.3711 46.327 92.3711 48.131C92.3711 49.5537 92.5838 50.8297 93.0091 51.959C93.4491 53.0737 94.0431 53.9464 94.7911 54.577C95.5538 55.2077 96.4118 55.523 97.3651 55.523Z" fill="white"/>
<path d="M114.429 56.073C112.816 56.073 111.408 55.765 110.205 55.149C109.002 54.533 108.086 53.697 107.455 52.641C106.824 51.5704 106.509 50.3824 106.509 49.077C106.509 47.669 106.868 46.415 107.587 45.315C108.32 44.2004 109.318 43.3424 110.579 42.741C111.855 42.125 113.278 41.817 114.847 41.817C115.536 41.817 116.233 41.8757 116.937 41.993C117.641 42.0957 118.206 42.235 118.631 42.411C118.763 42.455 118.844 42.5137 118.873 42.587C118.917 42.6457 118.946 42.7557 118.961 42.917L119.247 45.975C119.247 46.019 119.21 46.0484 119.137 46.063C119.064 46.0777 119.012 46.0557 118.983 45.997C118.47 44.8677 117.758 43.9877 116.849 43.357C115.954 42.7264 114.928 42.411 113.769 42.411C112.273 42.411 111.129 42.9317 110.337 43.973C109.56 45.0144 109.171 46.437 109.171 48.241C109.171 49.693 109.42 50.991 109.919 52.135C110.418 53.2644 111.107 54.1444 111.987 54.775C112.882 55.391 113.879 55.699 114.979 55.699C115.58 55.699 116.042 55.633 116.365 55.501C116.688 55.369 116.922 55.1124 117.069 54.731C117.216 54.3497 117.289 53.785 117.289 53.037C117.289 52.2744 117.245 51.7464 117.157 51.453C117.069 51.145 116.878 50.9397 116.585 50.837C116.306 50.7344 115.815 50.683 115.111 50.683C115.023 50.683 114.979 50.6244 114.979 50.507C114.979 50.463 114.986 50.4264 115.001 50.397C115.03 50.353 115.06 50.331 115.089 50.331C116.336 50.4044 117.34 50.441 118.103 50.441C118.851 50.441 119.628 50.419 120.435 50.375C120.464 50.375 120.486 50.397 120.501 50.441C120.53 50.4704 120.545 50.4997 120.545 50.529C120.545 50.6317 120.508 50.683 120.435 50.683C120.171 50.6684 119.988 50.7197 119.885 50.837C119.782 50.9397 119.716 51.1597 119.687 51.497C119.658 51.8197 119.643 52.4064 119.643 53.257C119.643 53.917 119.665 54.3864 119.709 54.665C119.768 54.9437 119.797 55.1197 119.797 55.193C119.797 55.281 119.775 55.3397 119.731 55.369C119.702 55.3984 119.636 55.4277 119.533 55.457C117.641 55.8677 115.94 56.073 114.429 56.073Z" fill="white"/>
<path d="M86.1031 17.9983H117.384V19.3016H86.1031V17.9983Z" fill="white"/>
<path d="M1.384 17.9983H31.3615V19.3016H1.384V17.9983Z" fill="white"/>
</symbol><symbol id="icon-logo-header" viewBox="0 0 56 26">
<path d="M32.1176 10.3106C32.1176 10.5111 32.2805 10.6736 32.4813 10.6736H33.1486C33.3495 10.6736 33.5124 10.5111 33.5124 10.3106C33.5124 10.1101 33.3495 9.94749 33.1486 9.94749H32.4813C32.2805 9.94749 32.1176 10.1101 32.1176 10.3106Z" fill="#195557"/>
<path d="M36.8812 12.2785C36.8064 12.2785 36.7331 12.2853 36.6616 12.2974L34.2641 8.32719C34.2738 8.31549 34.283 8.30327 34.2913 8.29016L35.9013 5.73787C35.9681 5.63207 35.9755 5.4994 35.9212 5.38676C35.8668 5.27412 35.7581 5.19732 35.6336 5.18352L32.9922 4.89076L33.2921 2.25522C33.3062 2.13109 33.2555 2.00842 33.1576 1.93046C33.0598 1.85255 32.9287 1.83025 32.8105 1.87156L30.3021 2.74802L29.4262 0.243448C29.3849 0.125385 29.2857 0.0368377 29.1636 0.00907325C29.0415 -0.0186058 28.9136 0.0182143 28.8251 0.106762L26.9485 1.98556L25.0719 0.106762C24.9834 0.0182143 24.8555 -0.0186913 24.7335 0.00907325C24.6113 0.0368377 24.5121 0.125428 24.4708 0.243406L23.595 2.74798L21.0865 1.87156C20.9683 1.8303 20.8372 1.85251 20.7394 1.93046C20.6416 2.00837 20.5907 2.13105 20.6048 2.25522L20.9047 4.89076L18.2634 5.18357C18.1388 5.19736 18.0302 5.27416 17.9758 5.3868C17.9214 5.49944 17.9289 5.63207 17.9957 5.73792L19.4117 7.98257L17.1614 9.39305C17.0555 9.45947 16.9912 9.57561 16.9912 9.70051C16.9912 9.82541 17.0555 9.9415 17.1614 10.008L19.4117 11.4185L17.9957 13.6631C17.9252 13.775 17.9211 13.9162 17.985 14.0319C18.0489 14.1476 18.1708 14.2195 18.3032 14.2197L35.7608 14.2393C35.9879 14.6212 36.405 14.8779 36.8813 14.8779C37.5992 14.8779 38.1834 14.2949 38.1834 13.5782C38.1833 12.8616 37.5992 12.2785 36.8812 12.2785ZM35.5808 13.513L29.095 13.5057C28.2362 10.6022 30.363 8.3441 32.844 7.38238L36.0053 12.6173C35.7587 12.8415 35.5984 13.1588 35.5808 13.513ZM20.2214 11.4978C20.2728 11.4163 20.2897 11.3176 20.2683 11.2237C20.2468 11.1297 20.1888 11.0482 20.107 10.9969L18.0389 9.70047L20.107 8.40408C20.1888 8.35282 20.2468 8.27123 20.2683 8.17726C20.2897 8.08329 20.2728 7.98466 20.2214 7.90312L18.9207 5.84124L21.3475 5.57223C21.4436 5.56159 21.5314 5.51319 21.5917 5.43785C21.652 5.36245 21.6797 5.26622 21.6688 5.17041L21.3932 2.74798L23.6982 3.55336C23.7892 3.58518 23.8893 3.5795 23.9763 3.53777C24.0633 3.49591 24.13 3.42129 24.1618 3.33039L24.9665 1.02965L26.6909 2.75614C26.7591 2.82448 26.8518 2.86288 26.9485 2.86288C27.0452 2.86288 27.1379 2.82448 27.2061 2.75614L28.9306 1.02965L29.7352 3.33039C29.767 3.42137 29.8338 3.496 29.9207 3.53781C30.0077 3.57963 30.1078 3.58527 30.1989 3.5534L32.5039 2.74802L32.2283 5.17045C32.2174 5.26626 32.2451 5.3625 32.3054 5.43789C32.3656 5.51332 32.4535 5.56163 32.5495 5.57227L34.9764 5.84124L33.8455 7.63385L33.3123 6.75085C33.2235 6.60395 33.0439 6.53916 32.8817 6.59515C31.2135 7.17172 29.8433 8.17863 29.0236 9.43046C28.2072 10.6773 27.9746 12.0768 28.3402 13.5047L18.9621 13.4942L20.2214 11.4978ZM36.8812 14.1517C36.5644 14.1517 36.3067 13.8944 36.3067 13.5782C36.3067 13.2619 36.5644 13.0047 36.8812 13.0047C37.198 13.0047 37.4558 13.2619 37.4558 13.5782C37.4558 13.8944 37.198 14.1517 36.8812 14.1517Z" fill="#195557"/>
<path d="M7.19506 25.7552C7.2155 25.7552 7.22572 25.7756 7.22572 25.8164C7.22572 25.8572 7.2155 25.8776 7.19506 25.8776C6.95659 25.8776 6.76581 25.8742 6.62273 25.8674L5.83577 25.8572L4.91595 25.8674C4.7933 25.8742 4.62637 25.8776 4.41515 25.8776C4.39471 25.8776 4.38449 25.8572 4.38449 25.8164C4.38449 25.7756 4.39471 25.7552 4.41515 25.7552C4.66725 25.7552 4.85122 25.7382 4.96705 25.7042C5.08288 25.6702 5.16123 25.6056 5.20211 25.5104C5.24299 25.4151 5.26343 25.2621 5.26343 25.0513V22.7051H1.96229V25.0513C1.96229 25.2553 1.98273 25.4083 2.02361 25.5104C2.06449 25.6056 2.14285 25.6702 2.25868 25.7042C2.37451 25.7382 2.55847 25.7552 2.81057 25.7552C2.8242 25.7552 2.83101 25.7756 2.83101 25.8164C2.83101 25.8572 2.8242 25.8776 2.81057 25.8776C2.5721 25.8776 2.38132 25.8742 2.23824 25.8674L1.34907 25.8572L0.582555 25.8674C0.446285 25.8742 0.258913 25.8776 0.0204405 25.8776C0.00681351 25.8776 0 25.8572 0 25.8164C0 25.7756 0.00681351 25.7552 0.0204405 25.7552C0.258913 25.7552 0.432658 25.7382 0.541674 25.7042C0.65069 25.6702 0.725638 25.6056 0.766519 25.5104C0.807401 25.4083 0.827841 25.2553 0.827841 25.0513V20.3283C0.827841 20.1242 0.807401 19.9746 0.766519 19.8794C0.725638 19.7842 0.65069 19.7196 0.541674 19.6856C0.439471 19.6448 0.27254 19.6244 0.040881 19.6244C0.0204405 19.6244 0.0102203 19.604 0.0102203 19.5632C0.0102203 19.5224 0.0204405 19.502 0.040881 19.502L0.592775 19.5122C0.906196 19.5258 1.1583 19.5326 1.34907 19.5326C1.60799 19.5326 1.90778 19.5258 2.24846 19.5122L2.81057 19.502C2.8242 19.502 2.83101 19.5224 2.83101 19.5632C2.83101 19.604 2.8242 19.6244 2.81057 19.6244C2.56529 19.6244 2.38473 19.6448 2.2689 19.6856C2.15307 19.7264 2.07131 19.7978 2.02361 19.8998C1.98273 19.995 1.96229 20.1446 1.96229 20.3487V22.4195H5.26343V20.3487C5.26343 20.1446 5.24299 19.995 5.20211 19.8998C5.16123 19.7978 5.08288 19.7264 4.96705 19.6856C4.85122 19.6448 4.66725 19.6244 4.41515 19.6244C4.39471 19.6244 4.38449 19.604 4.38449 19.5632C4.38449 19.5224 4.39471 19.502 4.41515 19.502L4.91595 19.5122C5.25662 19.5258 5.56323 19.5326 5.83577 19.5326C6.01973 19.5326 6.28205 19.5258 6.62273 19.5122L7.19506 19.502C7.2155 19.502 7.22572 19.5224 7.22572 19.5632C7.22572 19.604 7.2155 19.6244 7.19506 19.6244C6.9634 19.6244 6.78966 19.6448 6.67383 19.6856C6.56481 19.7196 6.48987 19.7842 6.44898 19.8794C6.41492 19.9746 6.39788 20.1242 6.39788 20.3283V25.0513C6.39788 25.2553 6.41492 25.4083 6.44898 25.5104C6.48987 25.6056 6.56481 25.6702 6.67383 25.7042C6.78285 25.7382 6.95659 25.7552 7.19506 25.7552Z" fill="#195557"/>
<path d="M12.588 24.2556C12.588 24.242 12.6016 24.2352 12.6289 24.2352C12.6493 24.2352 12.6664 24.242 12.68 24.2556C12.7004 24.2624 12.7106 24.2692 12.7106 24.276C12.6425 24.8065 12.6084 25.2893 12.6084 25.7246C12.6084 25.779 12.5982 25.8198 12.5778 25.847C12.5573 25.8674 12.5165 25.8776 12.4551 25.8776H7.93779C7.91735 25.8776 7.90713 25.8572 7.90713 25.8164C7.90713 25.7756 7.91735 25.7552 7.93779 25.7552C8.15582 25.7552 8.31253 25.7382 8.40792 25.7042C8.51012 25.6702 8.57826 25.6056 8.61233 25.5104C8.64639 25.4083 8.66343 25.2553 8.66343 25.0513V20.3283C8.66343 20.1242 8.64639 19.9746 8.61233 19.8794C8.57826 19.7842 8.51012 19.7196 8.40792 19.6856C8.30572 19.6448 8.14901 19.6244 7.93779 19.6244C7.91735 19.6244 7.90713 19.604 7.90713 19.5632C7.90713 19.5224 7.91735 19.502 7.93779 19.502H12.2712C12.3393 19.502 12.3734 19.5326 12.3734 19.5938L12.3938 20.9505C12.3938 20.9641 12.3734 20.9743 12.3325 20.9811C12.2984 20.9879 12.278 20.9811 12.2712 20.9607C12.1622 20.5663 11.9782 20.2738 11.7193 20.0834C11.4604 19.893 11.1197 19.7978 10.6973 19.7978H10.3907C10.1862 19.7978 10.0363 19.842 9.94096 19.9304C9.84557 20.0188 9.79788 20.1548 9.79788 20.3385V22.4195H10.6462C11.0413 22.4195 11.3445 22.3514 11.5558 22.2154C11.767 22.0794 11.8726 21.889 11.8726 21.6442C11.8726 21.6238 11.8896 21.6136 11.9237 21.6136C11.9646 21.6136 11.985 21.6238 11.985 21.6442L11.9748 22.5623L11.985 23.0519C11.9986 23.2831 12.0055 23.4668 12.0055 23.6028C12.0055 23.6164 11.985 23.6232 11.9441 23.6232C11.9032 23.6232 11.8828 23.6164 11.8828 23.6028C11.8828 23.3239 11.7738 23.1063 11.5558 22.9499C11.3445 22.7867 11.0379 22.7051 10.6359 22.7051H9.79788V25.0105C9.79788 25.2077 9.83535 25.3539 9.9103 25.4491C9.98525 25.5444 10.1045 25.592 10.268 25.592H10.6053C11.1367 25.592 11.5626 25.4832 11.8828 25.2655C12.203 25.0479 12.4381 24.7113 12.588 24.2556Z" fill="#195557"/>
<path d="M16.4897 25.9184C16.2716 25.9184 16.0127 25.9082 15.7129 25.8878C15.6039 25.881 15.4676 25.8742 15.3041 25.8674C15.1474 25.8606 14.9703 25.8572 14.7727 25.8572L14.0164 25.8674C13.8801 25.8742 13.6961 25.8776 13.4645 25.8776C13.4508 25.8776 13.444 25.8572 13.444 25.8164C13.444 25.7756 13.4508 25.7552 13.4645 25.7552C13.6825 25.7552 13.8426 25.7382 13.9448 25.7042C14.047 25.6702 14.1152 25.6056 14.1492 25.5104C14.1901 25.4083 14.2106 25.2553 14.2106 25.0513V20.3283C14.2106 20.1242 14.1901 19.9746 14.1492 19.8794C14.1152 19.7842 14.047 19.7196 13.9448 19.6856C13.8494 19.6448 13.6961 19.6244 13.4849 19.6244C13.4645 19.6244 13.4543 19.604 13.4543 19.5632C13.4543 19.5224 13.4645 19.502 13.4849 19.502L14.0266 19.5122C14.34 19.5258 14.5887 19.5326 14.7727 19.5326C15.052 19.5326 15.3382 19.5224 15.6312 19.502C15.9855 19.4884 16.2239 19.4816 16.3466 19.4816C17.0348 19.4816 17.6446 19.6176 18.176 19.8896C18.7143 20.1616 19.1299 20.5323 19.4229 21.0015C19.7159 21.4708 19.8624 21.9978 19.8624 22.5827C19.8624 23.2423 19.7091 23.8272 19.4024 24.3372C19.1027 24.8405 18.6938 25.2315 18.176 25.5104C17.665 25.7824 17.1029 25.9184 16.4897 25.9184ZM16.3875 25.6838C16.8235 25.6838 17.2085 25.575 17.5424 25.3573C17.8762 25.1329 18.1351 24.8031 18.3191 24.3678C18.5099 23.9326 18.6053 23.4123 18.6053 22.8071C18.6053 22.229 18.5167 21.7054 18.3395 21.2361C18.1624 20.7601 17.9103 20.3861 17.5832 20.114C17.2562 19.842 16.878 19.706 16.4488 19.706C16.0264 19.706 15.7368 19.7468 15.5801 19.8284C15.4234 19.91 15.345 20.0834 15.345 20.3487V24.9391C15.345 25.2111 15.4165 25.4049 15.5596 25.5206C15.7027 25.6294 15.9787 25.6838 16.3875 25.6838Z" fill="#195557"/>
<path d="M24.544 26C23.7945 26 23.1405 25.8572 22.5817 25.5716C22.023 25.2859 21.5972 24.8983 21.3042 24.4086C21.0112 23.9122 20.8647 23.3613 20.8647 22.7561C20.8647 22.1032 21.0317 21.5218 21.3655 21.0117C21.7062 20.4949 22.1695 20.097 22.7555 19.8182C23.3483 19.5326 24.0092 19.3898 24.7382 19.3898C25.0585 19.3898 25.3821 19.417 25.7091 19.4714C26.0362 19.519 26.2985 19.5836 26.4961 19.6652C26.5574 19.6856 26.5949 19.7128 26.6085 19.7468C26.629 19.774 26.6426 19.825 26.6494 19.8998L26.7823 21.3177C26.7823 21.3381 26.7652 21.3518 26.7312 21.3586C26.6971 21.3654 26.6733 21.3552 26.6596 21.3279C26.4212 20.8043 26.0907 20.3963 25.6683 20.1038C25.2526 19.8114 24.7757 19.6652 24.2374 19.6652C23.5424 19.6652 23.011 19.9066 22.6431 20.3895C22.2819 20.8723 22.1014 21.532 22.1014 22.3684C22.1014 23.0417 22.2172 23.6436 22.4489 24.174C22.6805 24.6977 23.0008 25.1057 23.4096 25.3981C23.8252 25.6838 24.2885 25.8266 24.7995 25.8266C25.0789 25.8266 25.2935 25.796 25.4434 25.7348C25.5933 25.6736 25.7023 25.5546 25.7705 25.3777C25.8386 25.2009 25.8727 24.9391 25.8727 24.5923C25.8727 24.2386 25.8522 23.9938 25.8113 23.8578C25.7705 23.715 25.6819 23.6198 25.5456 23.5722C25.4162 23.5246 25.1879 23.5008 24.8609 23.5008C24.82 23.5008 24.7995 23.4736 24.7995 23.4191C24.7995 23.3987 24.8029 23.3817 24.8098 23.3681C24.8234 23.3477 24.837 23.3375 24.8506 23.3375C25.4298 23.3715 25.8965 23.3885 26.2508 23.3885C26.5983 23.3885 26.9594 23.3783 27.3342 23.3579C27.3478 23.3579 27.358 23.3681 27.3648 23.3885C27.3785 23.4021 27.3853 23.4158 27.3853 23.4294C27.3853 23.477 27.3682 23.5008 27.3342 23.5008C27.2115 23.494 27.1264 23.5178 27.0787 23.5722C27.031 23.6198 27.0003 23.7218 26.9867 23.8782C26.973 24.0278 26.9662 24.2998 26.9662 24.6943C26.9662 25.0003 26.9765 25.2179 26.9969 25.3471C27.0242 25.4763 27.0378 25.558 27.0378 25.592C27.0378 25.6328 27.0276 25.66 27.0071 25.6736C26.9935 25.6872 26.9628 25.7008 26.9151 25.7144C26.0362 25.9048 25.2458 26 24.544 26Z" fill="#195557"/>
<path d="M32.779 24.2556C32.779 24.242 32.7926 24.2352 32.8199 24.2352C32.8403 24.2352 32.8574 24.242 32.871 24.2556C32.8914 24.2624 32.9016 24.2692 32.9016 24.276C32.8335 24.8065 32.7994 25.2893 32.7994 25.7246C32.7994 25.779 32.7892 25.8198 32.7688 25.847C32.7483 25.8674 32.7075 25.8776 32.6461 25.8776H28.1288C28.1083 25.8776 28.0981 25.8572 28.0981 25.8164C28.0981 25.7756 28.1083 25.7552 28.1288 25.7552C28.3468 25.7552 28.5035 25.7382 28.5989 25.7042C28.7011 25.6702 28.7693 25.6056 28.8033 25.5104C28.8374 25.4083 28.8544 25.2553 28.8544 25.0513V20.3283C28.8544 20.1242 28.8374 19.9746 28.8033 19.8794C28.7693 19.7842 28.7011 19.7196 28.5989 19.6856C28.4967 19.6448 28.34 19.6244 28.1288 19.6244C28.1083 19.6244 28.0981 19.604 28.0981 19.5632C28.0981 19.5224 28.1083 19.502 28.1288 19.502H32.4622C32.5303 19.502 32.5644 19.5326 32.5644 19.5938L32.5848 20.9505C32.5848 20.9641 32.5644 20.9743 32.5235 20.9811C32.4894 20.9879 32.469 20.9811 32.4622 20.9607C32.3532 20.5663 32.1692 20.2738 31.9103 20.0834C31.6514 19.893 31.3107 19.7978 30.8883 19.7978H30.5817C30.3772 19.7978 30.2273 19.842 30.132 19.9304C30.0366 20.0188 29.9889 20.1548 29.9889 20.3385V22.4195H30.8372C31.2323 22.4195 31.5355 22.3514 31.7468 22.2154C31.958 22.0794 32.0636 21.889 32.0636 21.6442C32.0636 21.6238 32.0806 21.6136 32.1147 21.6136C32.1556 21.6136 32.176 21.6238 32.176 21.6442L32.1658 22.5623L32.176 23.0519C32.1896 23.2831 32.1965 23.4668 32.1965 23.6028C32.1965 23.6164 32.176 23.6232 32.1351 23.6232C32.0943 23.6232 32.0738 23.6164 32.0738 23.6028C32.0738 23.3239 31.9648 23.1063 31.7468 22.9499C31.5355 22.7867 31.2289 22.7051 30.8269 22.7051H29.9889V25.0105C29.9889 25.2077 30.0263 25.3539 30.1013 25.4491C30.1762 25.5444 30.2955 25.592 30.459 25.592H30.7963C31.3277 25.592 31.7536 25.4832 32.0738 25.2655C32.394 25.0479 32.6291 24.7113 32.779 24.2556Z" fill="#195557"/>
<path d="M40.8301 25.7552C40.8505 25.7552 40.8608 25.7756 40.8608 25.8164C40.8608 25.8572 40.8505 25.8776 40.8301 25.8776C40.5916 25.8776 40.4008 25.8742 40.2578 25.8674L39.4708 25.8572L38.551 25.8674C38.4283 25.8742 38.2614 25.8776 38.0502 25.8776C38.0297 25.8776 38.0195 25.8572 38.0195 25.8164C38.0195 25.7756 38.0297 25.7552 38.0502 25.7552C38.3023 25.7552 38.4863 25.7382 38.6021 25.7042C38.7179 25.6702 38.7963 25.6056 38.8371 25.5104C38.878 25.4151 38.8985 25.2621 38.8985 25.0513V22.7051H35.5973V25.0513C35.5973 25.2553 35.6178 25.4083 35.6586 25.5104C35.6995 25.6056 35.7779 25.6702 35.8937 25.7042C36.0095 25.7382 36.1935 25.7552 36.4456 25.7552C36.4592 25.7552 36.466 25.7756 36.466 25.8164C36.466 25.8572 36.4592 25.8776 36.4456 25.8776C36.2071 25.8776 36.0164 25.8742 35.8733 25.8674L34.9841 25.8572L34.2176 25.8674C34.0813 25.8742 33.8939 25.8776 33.6555 25.8776C33.6418 25.8776 33.635 25.8572 33.635 25.8164C33.635 25.7756 33.6418 25.7552 33.6555 25.7552C33.8939 25.7552 34.0677 25.7382 34.1767 25.7042C34.2857 25.6702 34.3607 25.6056 34.4016 25.5104C34.4424 25.4083 34.4629 25.2553 34.4629 25.0513V20.3283C34.4629 20.1242 34.4424 19.9746 34.4016 19.8794C34.3607 19.7842 34.2857 19.7196 34.1767 19.6856C34.0745 19.6448 33.9076 19.6244 33.6759 19.6244C33.6555 19.6244 33.6453 19.604 33.6453 19.5632C33.6453 19.5224 33.6555 19.502 33.6759 19.502L34.2278 19.5122C34.5412 19.5258 34.7933 19.5326 34.9841 19.5326C35.243 19.5326 35.5428 19.5258 35.8835 19.5122L36.4456 19.502C36.4592 19.502 36.466 19.5224 36.466 19.5632C36.466 19.604 36.4592 19.6244 36.4456 19.6244C36.2003 19.6244 36.0198 19.6448 35.9039 19.6856C35.7881 19.7264 35.7063 19.7978 35.6586 19.8998C35.6178 19.995 35.5973 20.1446 35.5973 20.3487V22.4195H38.8985V20.3487C38.8985 20.1446 38.878 19.995 38.8371 19.8998C38.7963 19.7978 38.7179 19.7264 38.6021 19.6856C38.4863 19.6448 38.3023 19.6244 38.0502 19.6244C38.0297 19.6244 38.0195 19.604 38.0195 19.5632C38.0195 19.5224 38.0297 19.502 38.0502 19.502L38.551 19.5122C38.8917 19.5258 39.1983 19.5326 39.4708 19.5326C39.6548 19.5326 39.9171 19.5258 40.2578 19.5122L40.8301 19.502C40.8505 19.502 40.8608 19.5224 40.8608 19.5632C40.8608 19.604 40.8505 19.6244 40.8301 19.6244C40.5984 19.6244 40.4247 19.6448 40.3089 19.6856C40.1998 19.7196 40.1249 19.7842 40.084 19.8794C40.05 19.9746 40.0329 20.1242 40.0329 20.3283V25.0513C40.0329 25.2553 40.05 25.4083 40.084 25.5104C40.1249 25.6056 40.1998 25.6702 40.3089 25.7042C40.4179 25.7382 40.5916 25.7552 40.8301 25.7552Z" fill="#195557"/>
<path d="M44.8944 26C44.2607 26 43.6952 25.8538 43.1978 25.5614C42.7073 25.2621 42.3257 24.8609 42.0532 24.3576C41.7874 23.8476 41.6546 23.2933 41.6546 22.6949C41.6546 21.9944 41.8317 21.396 42.186 20.8995C42.5403 20.3963 42.9934 20.0188 43.5453 19.7672C44.104 19.5156 44.673 19.3898 45.2521 19.3898C45.8994 19.3898 46.4683 19.5428 46.9589 19.8488C47.4495 20.148 47.8242 20.5459 48.0831 21.0423C48.3489 21.5388 48.4817 22.0658 48.4817 22.6235C48.4817 23.2423 48.3182 23.8102 47.9911 24.327C47.6641 24.8439 47.2246 25.2519 46.6727 25.5512C46.1277 25.8504 45.5349 26 44.8944 26ZM45.2317 25.745C45.6132 25.745 45.9539 25.6362 46.2537 25.4185C46.5603 25.1941 46.7988 24.8711 46.9691 24.4494C47.1395 24.021 47.2246 23.511 47.2246 22.9193C47.2246 22.2936 47.1292 21.736 46.9385 21.2463C46.7477 20.7499 46.4717 20.3623 46.1106 20.0834C45.7495 19.8046 45.3271 19.6652 44.8433 19.6652C44.2233 19.6652 43.7463 19.8998 43.4125 20.3691C43.0786 20.8315 42.9117 21.481 42.9117 22.3174C42.9117 22.9771 43.0105 23.5688 43.2081 24.0924C43.4125 24.6093 43.6884 25.0139 44.0359 25.3063C44.3902 25.5988 44.7888 25.745 45.2317 25.745Z" fill="#195557"/>
<path d="M53.1588 26C52.4093 26 51.7552 25.8572 51.1965 25.5716C50.6378 25.2859 50.2119 24.8983 49.9189 24.4086C49.626 23.9122 49.4795 23.3613 49.4795 22.7561C49.4795 22.1032 49.6464 21.5218 49.9803 21.0117C50.3209 20.4949 50.7843 20.097 51.3702 19.8182C51.963 19.5326 52.6239 19.3898 53.353 19.3898C53.6732 19.3898 53.9968 19.417 54.3239 19.4714C54.6509 19.519 54.9132 19.5836 55.1108 19.6652C55.1722 19.6856 55.2096 19.7128 55.2233 19.7468C55.2437 19.774 55.2573 19.825 55.2641 19.8998L55.397 21.3177C55.397 21.3381 55.38 21.3518 55.3459 21.3586C55.3118 21.3654 55.288 21.3552 55.2744 21.3279C55.0359 20.8043 54.7054 20.3963 54.283 20.1038C53.8674 19.8114 53.3904 19.6652 52.8522 19.6652C52.1572 19.6652 51.6257 19.9066 51.2578 20.3895C50.8967 20.8723 50.7161 21.532 50.7161 22.3684C50.7161 23.0417 50.832 23.6436 51.0636 24.174C51.2953 24.6977 51.6155 25.1057 52.0243 25.3981C52.4399 25.6838 52.9033 25.8266 53.4143 25.8266C53.6936 25.8266 53.9083 25.796 54.0582 25.7348C54.208 25.6736 54.3171 25.5546 54.3852 25.3777C54.4533 25.2009 54.4874 24.9391 54.4874 24.5923C54.4874 24.2386 54.467 23.9938 54.4261 23.8578C54.3852 23.715 54.2966 23.6198 54.1604 23.5722C54.0309 23.5246 53.8026 23.5008 53.4756 23.5008C53.4347 23.5008 53.4143 23.4736 53.4143 23.4191C53.4143 23.3987 53.4177 23.3817 53.4245 23.3681C53.4381 23.3477 53.4517 23.3375 53.4654 23.3375C54.0445 23.3715 54.5112 23.3885 54.8655 23.3885C55.213 23.3885 55.5742 23.3783 55.9489 23.3579C55.9625 23.3579 55.9727 23.3681 55.9796 23.3885C55.9932 23.4021 56 23.4158 56 23.4294C56 23.477 55.983 23.5008 55.9489 23.5008C55.8263 23.494 55.7411 23.5178 55.6934 23.5722C55.6457 23.6198 55.615 23.7218 55.6014 23.8782C55.5878 24.0278 55.581 24.2998 55.581 24.6943C55.581 25.0003 55.5912 25.2179 55.6116 25.3471C55.6389 25.4763 55.6525 25.558 55.6525 25.592C55.6525 25.6328 55.6423 25.66 55.6218 25.6736C55.6082 25.6872 55.5776 25.7008 55.5299 25.7144C54.6509 25.9048 53.8606 26 53.1588 26Z" fill="#195557"/>
<path d="M39.9998 8.34547H54.5316V8.94982H39.9998V8.34547Z" fill="#195557"/>
<path d="M0.642963 8.34547H14.5692V8.94982H0.642963V8.34547Z" fill="#195557"/>
</symbol><symbol id="icon-plus" viewBox="0 0 40 40">
<path d="M31.6667 18.3333H21.6667V8.33329C21.6667 7.89127 21.4911 7.46734 21.1785 7.15478C20.866 6.84222 20.442 6.66663 20 6.66663C19.558 6.66663 19.1341 6.84222 18.8215 7.15478C18.5089 7.46734 18.3334 7.89127 18.3334 8.33329V18.3333H8.33335C7.89133 18.3333 7.4674 18.5089 7.15484 18.8214C6.84228 19.134 6.66669 19.5579 6.66669 20C6.66669 20.442 6.84228 20.8659 7.15484 21.1785C7.4674 21.491 7.89133 21.6666 8.33335 21.6666H18.3334V31.6666C18.3334 32.1087 18.5089 32.5326 18.8215 32.8451C19.1341 33.1577 19.558 33.3333 20 33.3333C20.442 33.3333 20.866 33.1577 21.1785 32.8451C21.4911 32.5326 21.6667 32.1087 21.6667 31.6666V21.6666H31.6667C32.1087 21.6666 32.5326 21.491 32.8452 21.1785C33.1578 20.8659 33.3334 20.442 33.3334 20C33.3334 19.5579 33.1578 19.134 32.8452 18.8214C32.5326 18.5089 32.1087 18.3333 31.6667 18.3333Z" fill="#195557"/>
</symbol><symbol id="icon-promo" viewBox="0 0 41 41">
<path d="M7.7376 20.2643C7.7376 20.2643 5.36416 23.206 5.64888 25.0095L4.03564 26.4331V27.2873C4.03564 27.2873 7.92666 28.9005 11.628 27.7616V29.1852L11.7231 30.6088L13.6211 31.3679C13.6211 31.3679 15.8038 30.9886 16.3732 27.9512C16.3732 27.9512 18.651 28.8054 19.6003 31.2734L22.2579 31.0832C22.2579 31.0832 22.6371 29.6596 22.1628 28.7109L33.8364 28.5207L34.9753 29.565V30.7039L35.5447 31.3679H36.7787L37.7274 30.3241L36.6836 26.6227L37.5378 23.9651C37.5378 23.9651 27.6676 29.9443 14.0009 22.1623L12.9571 19.979C12.9571 19.979 10.7739 20.3588 10.869 20.9283C10.869 20.9283 10.3941 19.4101 7.73703 20.2643H7.7376Z" fill="#9B9B9A"/>
<path d="M10.5849 17.3692L8.5918 20.5011C8.5918 20.5011 10.9168 20.5962 10.8696 21.4025C10.8217 22.2094 12.2932 22.7789 10.6321 25.1518L11.8661 25.7212L12.6724 25.1039L13.5744 23.1109L14.0015 22.1622C14.0015 22.1622 24.8677 30.3713 37.5378 23.965L38.4392 22.2567L35.592 19.4095L35.26 18.1761L34.8802 16.5623L32.6503 16.1352L30.6572 13.8574L26.1489 13.0983L23.7288 12.1969L21.5461 13.7629L19.3628 13.2407L16.9905 14.9018L15.8989 14.949L13.9531 14.7594L12.6719 17.5115L11.3434 17.5588L10.5843 17.3692H10.5849Z" fill="#195557"/>
<path d="M13.9303 15.1688C13.4429 16.4501 12.8865 17.0446 12.4418 17.4956C12.2896 17.6523 12.085 17.7474 11.8672 17.7628C11.6493 17.7781 11.4334 17.7126 11.2608 17.5787L10.5865 17.0514L8.63676 19.9294C8.50995 20.1165 8.33922 20.2698 8.13949 20.3757C7.93976 20.4816 7.71712 20.537 7.49104 20.537C7.49104 20.537 5.96948 22.3996 5.4399 24.4126C5.29184 24.9769 4.93765 25.4661 4.46957 25.8146L4.25261 25.9769C4.25261 25.9769 2.91441 27.0941 4.5117 27.5799C4.5117 27.5799 9.99147 29.3104 13.0283 26.8903" stroke="black" stroke-width="2" stroke-miterlimit="10" stroke-linecap="round" stroke-linejoin="round"/>
<path d="M23.5631 12.7014C23.5631 12.7014 22.5244 13.4001 21.7409 13.5493C21.4049 13.6137 21.0792 13.6803 20.7643 13.7486L18.9603 13.366C18.0657 14.3881 16.8226 14.875 15.9473 15.2588" stroke="black" stroke-width="2" stroke-miterlimit="10" stroke-linecap="round" stroke-linejoin="round"/>
<path d="M34.1456 16.4028C33.0147 16.4028 32.6935 16.3157 32.0557 15.8009C31.5612 15.4031 31.1422 14.9195 30.8189 14.3733L30.5866 13.9804C29.0826 13.9804 27.4734 13.7982 26.0037 13.5568" stroke="black" stroke-width="2" stroke-miterlimit="10" stroke-linecap="round" stroke-linejoin="round"/>
<path d="M37.728 21.9236C35.965 21.2665 35.7156 19.4095 35.1324 18.6578" stroke="black" stroke-width="2" stroke-miterlimit="10" stroke-linecap="round" stroke-linejoin="round"/>
<path d="M11.8547 29.4659L11.7254 29.7352C11.6419 29.9088 11.6038 30.1008 11.6147 30.2931C11.6255 30.4854 11.685 30.6719 11.7875 30.835C11.89 30.9981 12.0322 31.1325 12.2008 31.2257C12.3694 31.3189 12.5589 31.3678 12.7516 31.3678H13.6781C13.8834 31.3679 14.0849 31.3125 14.2614 31.2075C14.4378 31.1024 14.5825 30.9516 14.6803 30.771L16.3003 27.774C16.3003 27.774 18.294 28.5997 19.0075 30.6418C19.1629 31.0865 19.6048 31.3678 20.0758 31.3678H21.2277C21.3874 31.3682 21.5453 31.335 21.6913 31.2703C21.8372 31.2056 21.9679 31.1109 22.0748 30.9923C22.1817 30.8738 22.2625 30.734 22.3118 30.5822C22.3611 30.4303 22.3778 30.2698 22.3609 30.111C22.3023 29.5826 22.1952 29.0348 22.0005 28.7939C22.0005 28.7939 30.631 29.0428 33.3934 28.4454C33.9765 28.319 34.5573 28.6721 34.686 29.2546C34.7486 29.537 34.7856 29.8537 34.7669 30.1868C34.7304 30.8359 35.2526 31.3678 35.9023 31.3678H36.1244C36.7645 31.3678 37.2633 30.9122 37.3049 30.3189C37.3749 29.3258 37.2969 27.8179 36.4234 26.6568C36.4234 26.6568 37.0685 26.0919 37.0566 24.3295" stroke="black" stroke-width="2" stroke-miterlimit="10" stroke-linecap="round" stroke-linejoin="round"/>
<path d="M10.939 21.1936C10.939 21.1936 12.1485 19.2991 13.2282 20.9989C13.9565 22.1463 13.0528 23.87 12.3883 24.8699C12.2351 25.0997 12.0071 25.2694 11.7429 25.3499C11.4788 25.4305 11.1949 25.417 10.9396 25.3118V25.3118" stroke="black" stroke-width="2" stroke-miterlimit="10" stroke-linecap="round" stroke-linejoin="round"/>
<path d="M15.6147 19.701L18.462 17.3521" stroke="black" stroke-width="2" stroke-miterlimit="10" stroke-linecap="round" stroke-linejoin="round"/>
<path d="M17.9637 22.8461L21.3804 21.6742" stroke="black" stroke-width="2" stroke-miterlimit="10" stroke-linecap="round" stroke-linejoin="round"/>
<path d="M21.0245 18.6578L24.4679 17.0674" stroke="black" stroke-width="2" stroke-miterlimit="10" stroke-linecap="round" stroke-linejoin="round"/>
<path d="M22.7459 24.7548L26.6477 24.3295" stroke="black" stroke-width="2" stroke-miterlimit="10" stroke-linecap="round" stroke-linejoin="round"/>
<path d="M27.7866 20.8605L31.7016 21.562" stroke="black" stroke-width="2" stroke-miterlimit="10" stroke-linecap="round" stroke-linejoin="round"/>
<path d="M26.732 18.5012L29.8377 17.0759" stroke="black" stroke-width="2" stroke-miterlimit="10" stroke-linecap="round" stroke-linejoin="round"/>
<path d="M30.2033 24.924L33.7686 25.8789" stroke="black" stroke-width="2" stroke-miterlimit="10" stroke-linecap="round" stroke-linejoin="round"/>
</symbol></svg>